<svg xmlns="http://www.w3.org/2000/svg" viewBox="0 0 1200 675" role="img" aria-label="Agency operating system dashboard with SLAs">
  <defs>
    <linearGradient id="agency-bg" x1="0" y1="0" x2="1" y2="1">
      <stop offset="0%" stop-color="#041f43" />
      <stop offset="40%" stop-color="#0f4c75" />
      <stop offset="100%" stop-color="#06d6a0" />
    </linearGradient>
    <filter id="agency-shadow" x="-15%" y="-20%" width="150%" height="160%">
      <feDropShadow dx="0" dy="20" stdDeviation="18" flood-color="#06d6a0" flood-opacity="0.35" />
    </filter>
  </defs>
  <rect width="1200" height="675" rx="56" fill="url(#agency-bg)" />

  <g transform="translate(140, 120)">
    <rect width="920" height="420" rx="40" fill="#ffffff" fill-opacity="0.08" />
    <g transform="translate(60, 60)" filter="url(#agency-shadow)">
      <rect width="380" height="180" rx="26" fill="#0f172a" fill-opacity="0.65" />
      <text x="32" y="56" font-size="18" font-family="'Inter','Segoe UI',sans-serif" fill="#a5f3fc" opacity="0.9">Pod SLA</text>
      <rect x="32" y="78" width="140" height="36" rx="12" fill="#84cc16" fill-opacity="0.8" />
      <rect x="188" y="78" width="140" height="36" rx="12" fill="#f59e0b" fill-opacity="0.8" />
      <rect x="32" y="128" width="296" height="14" rx="7" fill="#38bdf8" />
    </g>

    <g transform="translate(470, 60)" filter="url(#agency-shadow)">
      <rect width="250" height="320" rx="30" fill="#041f43" fill-opacity="0.75" />
      <text x="30" y="60" font-size="18" font-family="'Inter','Segoe UI',sans-serif" fill="#bbf7d0" opacity="0.9">Capacity</text>
      <circle cx="125" cy="150" r="70" fill="none" stroke="#06d6a0" stroke-width="16" stroke-dasharray="320" stroke-dashoffset="80" />
      <text x="88" y="158" font-size="32" font-weight="600" font-family="'Inter','Segoe UI',sans-serif" fill="#e0f2fe">82%</text>
      <rect x="50" y="220" width="150" height="48" rx="16" fill="#0ea5e9" fill-opacity="0.6" />
    </g>

    <g transform="translate(750, 60)">
      <rect width="220" height="140" rx="24" fill="#ffffff" fill-opacity="0.14" />
      <text x="24" y="54" font-size="16" font-family="'Inter','Segoe UI',sans-serif" fill="#befae0">NPS 9.2</text>
      <text x="24" y="90" font-size="16" font-family="'Inter','Segoe UI',sans-serif" fill="#befae0">Escalations ↓37%</text>
    </g>

    <g transform="translate(60, 280)">
      <rect width="300" height="140" rx="28" fill="#ffffff" fill-opacity="0.12" />
      <polyline points="40,90 110,70 170,110 240,60" fill="none" stroke="#4ade80" stroke-width="8" stroke-linecap="round" />
      <polyline points="40,60 110,100 170,80 240,120" fill="none" stroke="#bfdbfe" stroke-width="5" stroke-dasharray="12 10" />
    </g>
  </g>
</svg>
