<svg xmlns="http://www.w3.org/2000/svg" viewBox="0 0 1200 675" role="img" aria-label="Case study storyboard layout">
  <defs>
    <linearGradient id="case-bg" x1="0" y1="0" x2="1" y2="1">
      <stop offset="0%" stop-color="#fff0d6" />
      <stop offset="40%" stop-color="#fecdd3" />
      <stop offset="100%" stop-color="#c4b5fd" />
    </linearGradient>
    <filter id="card-shadow" x="-20%" y="-20%" width="160%" height="160%">
      <feDropShadow dx="0" dy="16" stdDeviation="18" flood-color="#f472b6" flood-opacity="0.35" />
    </filter>
  </defs>
  <rect width="1200" height="675" rx="56" fill="url(#case-bg)" />

  <g transform="translate(140, 110)">
    <rect width="920" height="460" rx="42" fill="#fff" fill-opacity="0.18" />
    <rect x="40" y="50" width="420" height="360" rx="32" fill="#fffdfa" filter="url(#card-shadow)" />
    <rect x="80" y="110" width="300" height="16" rx="8" fill="#f97316" />
    <rect x="80" y="150" width="260" height="12" rx="6" fill="#fb923c" />
    <rect x="80" y="182" width="320" height="12" rx="6" fill="#fbbf24" />
    <rect x="80" y="214" width="280" height="12" rx="6" fill="#fde68a" />
    <rect x="80" y="260" width="200" height="20" rx="12" fill="#f472b6" />
    <rect x="80" y="300" width="240" height="20" rx="12" fill="#8b5cf6" />
    <rect x="80" y="340" width="180" height="20" rx="12" fill="#34d399" />

    <g transform="translate(500, 70)">
      <rect width="360" height="90" rx="26" fill="#1f2937" fill-opacity="0.2" />
      <rect x="20" y="25" width="80" height="40" rx="12" fill="#fbbf24" />
      <rect x="120" y="25" width="80" height="40" rx="12" fill="#fb7185" />
      <rect x="220" y="25" width="120" height="40" rx="12" fill="#a5f3fc" />
    </g>

    <g transform="translate(500, 200)">
      <rect width="360" height="190" rx="32" fill="#0f172a" fill-opacity="0.35" />
      <polyline points="40,150 120,90 200,130 300,80" fill="none" stroke="#fde68a" stroke-width="8" stroke-linecap="round" />
      <polyline points="40,120 120,150 200,100 300,160" fill="none" stroke="#c4b5fd" stroke-width="6" stroke-dasharray="14 10" />
      <circle cx="120" cy="90" r="10" fill="#fb7185" />
      <circle cx="300" cy="80" r="12" fill="#34d399" />
    </g>

    <g transform="translate(520, 430)" font-family="'Inter','Segoe UI',sans-serif" fill="#1f2937" opacity="0.7">
      <text x="0" y="0" font-size="18" letter-spacing="0.3em">BRIEF ▸ BARRIER ▸ IMPACT</text>
    </g>
  </g>
</svg>
