<svg xmlns="http://www.w3.org/2000/svg" viewBox="0 0 1200 675" role="img" aria-label="Landing page optimization blueprint">
  <defs>
    <linearGradient id="cro-bg" x1="0" y1="0" x2="1" y2="1">
      <stop offset="0%" stop-color="#ffd29d" />
      <stop offset="35%" stop-color="#ff8fb1" />
      <stop offset="100%" stop-color="#8b5cf6" />
    </linearGradient>
    <linearGradient id="cro-card" x1="0" y1="0" x2="1" y2="1">
      <stop offset="0%" stop-color="#ffffff" stop-opacity="0.96" />
      <stop offset="100%" stop-color="#f5f3ff" stop-opacity="0.94" />
    </linearGradient>
    <linearGradient id="cro-cta" x1="0" y1="0" x2="1" y2="1">
      <stop offset="0%" stop-color="#f43f5e" />
      <stop offset="100%" stop-color="#fb923c" />
    </linearGradient>
    <filter id="shadow" x="-20%" y="-20%" width="140%" height="160%">
      <feDropShadow dx="0" dy="26" stdDeviation="24" flood-color="#753a88" flood-opacity="0.3" />
    </filter>
  </defs>
  <rect width="1200" height="675" rx="56" fill="url(#cro-bg)" />

  <g transform="translate(140, 100)">
    <rect width="920" height="460" rx="40" fill="#fff" fill-opacity="0.08" />
    <rect x="40" y="60" width="520" height="340" rx="28" fill="url(#cro-card)" filter="url(#shadow)" />
    <rect x="80" y="110" width="360" height="60" rx="18" fill="#e2e8f0" />
    <rect x="80" y="200" width="330" height="20" rx="10" fill="#fda4af" />
    <rect x="80" y="230" width="290" height="18" rx="9" fill="#fef08a" />
    <rect x="80" y="260" width="250" height="18" rx="9" fill="#fbcfe8" />
    <rect x="80" y="310" width="150" height="54" rx="18" fill="url(#cro-cta)" />
    <rect x="250" y="310" width="160" height="54" rx="18" fill="#f5f3ff" />

    <g transform="translate(610, 70)">
      <rect width="220" height="120" rx="24" fill="#1e293b" fill-opacity="0.4" />
      <path d="M20 90 C60 60 100 105 140 74 C170 56 200 68 200 68" fill="none" stroke="#fde68a" stroke-width="6" stroke-linecap="round" />
      <path d="M20 100 C60 130 100 85 140 118 C170 136 200 124 200 124" fill="none" stroke="#bfdbfe" stroke-width="4" stroke-dasharray="10 12" />
      <circle cx="60" cy="64" r="8" fill="#f472b6" />
      <circle cx="140" cy="120" r="10" fill="#38bdf8" />
    </g>

    <g transform="translate(610, 220)">
      <rect width="240" height="80" rx="20" fill="#0f172a" fill-opacity="0.35" />
      <rect x="24" y="20" width="120" height="40" rx="14" fill="#fef08a" />
      <rect x="160" y="20" width="60" height="40" rx="14" fill="#f472b6" />
    </g>

    <g transform="translate(620, 330)" fill="#fff0f6">
      <text x="0" y="0" font-size="18" font-family="'Inter','Segoe UI',sans-serif" opacity="0.8">Scroll heatmap</text>
      <text x="0" y="34" font-size="28" font-weight="700" font-family="'Inter','Segoe UI',sans-serif">+34% hero engagement</text>
    </g>
  </g>
</svg>
