<svg xmlns="http://www.w3.org/2000/svg" viewBox="0 0 1200 675" role="img" aria-label="Technical SEO systems diagram">
  <defs>
    <linearGradient id="seo-bg" x1="0" y1="0" x2="1" y2="1">
      <stop offset="0%" stop-color="#022c22" />
      <stop offset="40%" stop-color="#065f46" />
      <stop offset="100%" stop-color="#34d399" />
    </linearGradient>
    <filter id="seo-shadow" x="-20%" y="-20%" width="160%" height="160%">
      <feDropShadow dx="0" dy="18" stdDeviation="20" flood-color="#34d399" flood-opacity="0.35" />
    </filter>
  </defs>
  <rect width="1200" height="675" rx="56" fill="url(#seo-bg)" />

  <g transform="translate(150, 130)" filter="url(#seo-shadow)">
    <rect width="900" height="380" rx="42" fill="#000" fill-opacity="0.15" />
    <circle cx="220" cy="190" r="120" fill="none" stroke="#a7f3d0" stroke-width="10" stroke-dasharray="40 18" />
    <circle cx="220" cy="190" r="70" fill="none" stroke="#6ee7b7" stroke-width="6" />
    <circle cx="220" cy="190" r="30" fill="#34d399" />
    <g transform="translate(400, 90)">
      <rect width="340" height="60" rx="18" fill="#064e3b" />
      <rect x="20" y="16" width="120" height="28" rx="10" fill="#a7f3d0" />
      <rect x="160" y="16" width="60" height="28" rx="10" fill="#6ee7b7" />
      <rect x="240" y="16" width="80" height="28" rx="10" fill="#99f6e4" />
    </g>
    <g transform="translate(400, 190)">
      <rect width="340" height="140" rx="24" fill="#064e3b" />
      <polyline points="30,100 100,70 170,90 240,50 310,80" fill="none" stroke="#bef264" stroke-width="8" stroke-linecap="round" />
      <polyline points="30,70 100,110 170,50 240,110 310,60" fill="none" stroke="#99f6e4" stroke-width="6" stroke-dasharray="12 10" />
    </g>
    <g transform="translate(400, 360)" fill="#ecfdf5" font-family="'Inter','Segoe UI',sans-serif" opacity="0.8">
      <text x="0" y="0" font-size="18" letter-spacing="0.35em">CRAWL ▸ RENDER ▸ INDEX ▸ SERVE</text>
    </g>
  </g>
</svg>
