<svg xmlns="http://www.w3.org/2000/svg" viewBox="0 0 1200 675" role="img" aria-label="Social reels production board">
  <defs>
    <linearGradient id="social-bg" x1="0" y1="0" x2="1" y2="1">
      <stop offset="0%" stop-color="#2d0a6b" />
      <stop offset="45%" stop-color="#7c3aed" />
      <stop offset="100%" stop-color="#fb7185" />
    </linearGradient>
    <filter id="social-shadow" x="-20%" y="-20%" width="160%" height="160%">
      <feDropShadow dx="0" dy="20" stdDeviation="18" flood-color="#c084fc" flood-opacity="0.45" />
    </filter>
  </defs>
  <rect width="1200" height="675" rx="56" fill="url(#social-bg)" />

  <g transform="translate(170, 120)" filter="url(#social-shadow)">
    <rect width="300" height="480" rx="52" fill="#0f0a1f" fill-opacity="0.5" />
    <rect x="30" y="40" width="240" height="400" rx="36" fill="#1c0f38" />
    <rect x="60" y="90" width="180" height="320" rx="28" fill="#060413" />
    <rect x="80" y="120" width="140" height="48" rx="16" fill="#fb7185" />
    <rect x="80" y="190" width="140" height="16" rx="8" fill="#fde68a" />
    <rect x="80" y="220" width="140" height="16" rx="8" fill="#fef9c3" />
    <rect x="80" y="250" width="140" height="16" rx="8" fill="#c4b5fd" />
    <rect x="80" y="310" width="140" height="54" rx="20" fill="#a5f3fc" />
    <circle cx="150" cy="60" r="12" fill="#312e81" />
  </g>

  <g transform="translate(540, 170)">
    <rect width="520" height="360" rx="36" fill="#ffffff" fill-opacity="0.1" />
    <g transform="translate(60, 70)">
      <rect width="400" height="30" rx="15" fill="#fef9c3" />
      <rect y="60" width="320" height="20" rx="10" fill="#c4b5fd" />
      <rect y="90" width="280" height="20" rx="10" fill="#f9a8d4" />
      <rect y="120" width="220" height="20" rx="10" fill="#fb7185" />
    </g>
    <g transform="translate(60, 230)">
      <rect width="180" height="60" rx="18" fill="#f472b6" />
      <rect x="210" width="180" height="60" rx="18" fill="#fde047" />
      <rect x="420" width="40" height="60" rx="18" fill="#34d399" />
    </g>
    <g transform="translate(60, 320)">
      <text x="0" y="0" font-size="30" font-weight="600" font-family="'Inter','Segoe UI',sans-serif" fill="#fff5f8">Hook ▸ Story ▸ CTA ▸ Boost</text>
    </g>
  </g>
</svg>
